<svg
        id="Layer_1"
        data-name="Layer 1"
        xmlns="http://www.w3.org/2000/svg"
        viewBox="0 0 500 500">
    <defs>
        <style>.cls-1{fill:#219cd8;}.cls-2{font-size:120.57px;fill:#463f57;font-family:FiraCode-SemiBold, Fira Code;font-weight:600;letter-spacing:0.3em;}</style>
    </defs>
    <title>S_original</title>
    <path
            class="cls-1"
            d="M330.45,395.43a3.39,3.39,0,0,1-1.87,3.31,5.44,5.44,0,0,1-4.4-.05,3.74,3.74,0,0,1-1.6-1c-5.38-5.69-10.73-11.4-14.72-17.82a11.32,11.32,0,0,1-1.58-3.88,7.41,7.41,0,0,0-1.63-4.09c-.27-.29-.4-.67,0-1,.62-.43,1,0,1.46.21a44.17,44.17,0,0,1,11.91,9.49c3.93,4.36,7.72,8.8,11.56,13.21A3,3,0,0,1,330.45,395.43Z" />
    <path
            class="cls-1"
            d="M370.82,354.31c-3.19-.07-6.52-.41-9.83-.8-9.63-1.14-19.29-2.16-28.84-3.6a17.33,17.33,0,0,1-9.28-4.17c-.32-.28-.57-.54-.19-.93a.84.84,0,0,1,1.19,0,4.5,4.5,0,0,0,3.3.49c4.62-.64,9.08,0,13.55.5q13.5,1.48,26.78,3.7c2.19.36,4.22.88,5.17,2.62C373.34,353.35,372.74,354.16,370.82,354.31Z" />
    <path
            class="cls-1"
            d="M324.05,307l-.67.08c-.39,0-.73,0-.85-.32s.11-.64.53-.77c4.18-1.35,7.36-3.95,11.26-5.66,7.29-3.2,14.65-6.27,22.2-9.06a6.16,6.16,0,0,1,4.73,0c1.72.76,1.73,2.75-.13,3.37-8.54,2.85-16.36,6.92-25,9.59A93.89,93.89,0,0,1,324.05,307Z" />
    <path
            class="cls-1"
            d="M336.31,319.35a5.65,5.65,0,0,1,2.23,0,1.93,1.93,0,0,1,1.63,1.65c.1.77-.59,1.18-1.45,1.55-1.7.73-3.34,1.54-5,2.34a19.78,19.78,0,0,1-5.06,1.6,1.31,1.31,0,0,1-1.24-.23c-.41-.37,0-.64.23-.95a14,14,0,0,1,7.29-5.56C335.52,319.55,336.12,319.41,336.31,319.35Z" />
    <path
            class="cls-1"
            d="M317.56,364.7a3.87,3.87,0,0,1,1.95,1.21,60.43,60.43,0,0,1,5.15,4.95c.29.32.65.62.16,1a1,1,0,0,1-1.35,0,16.85,16.85,0,0,1-6-6.78C317.39,365,317.5,364.88,317.56,364.7Z" />
    <text
            class="cls-2"
            transform="matrix(-1.76, -0.34, 0.19, -0.98, 335.4, 289.58)">{</text>
    <text
            class="cls-2"
            transform="matrix(1.76, 0.34, 0.19, -0.98, 168.8, 161.52)">{</text>
    <path
            class="cls-1"
            d="M160.52,139.05a3.39,3.39,0,0,1,1.87-3.31,5.44,5.44,0,0,1,4.4,0,3.74,3.74,0,0,1,1.6,1c5.38,5.69,10.73,11.4,14.71,17.82a11.15,11.15,0,0,1,1.59,3.88,7.41,7.41,0,0,0,1.63,4.09c.27.29.39.67,0,1-.62.44-1,0-1.46-.2a44,44,0,0,1-11.91-9.49c-3.93-4.36-7.72-8.8-11.56-13.21A3,3,0,0,1,160.52,139.05Z" />
    <path
            class="cls-1"
            d="M120.15,180.17c3.19.07,6.52.41,9.83.8,9.62,1.14,19.29,2.16,28.84,3.6a17.33,17.33,0,0,1,9.28,4.17c.32.28.57.54.19.93a.84.84,0,0,1-1.19,0,4.5,4.5,0,0,0-3.3-.49c-4.62.64-9.09,0-13.55-.5-9-1-17.93-2.25-26.79-3.71-2.18-.36-4.21-.87-5.16-2.61C117.63,181.13,118.23,180.32,120.15,180.17Z" />
    <path
            class="cls-1"
            d="M166.92,227.52l.67-.08c.39-.05.73,0,.85.32s-.11.64-.53.77c-4.18,1.35-7.36,3.95-11.26,5.66-7.29,3.2-14.66,6.27-22.2,9.06a6.16,6.16,0,0,1-4.73,0c-1.72-.76-1.73-2.75.13-3.37,8.54-2.85,16.36-6.92,25-9.59A93.89,93.89,0,0,1,166.92,227.52Z" />
    <path
            class="cls-1"
            d="M154.65,215.13a5.6,5.6,0,0,1-2.22,0,1.93,1.93,0,0,1-1.63-1.65c-.1-.77.59-1.18,1.45-1.55,1.7-.73,3.34-1.54,5-2.34a19.65,19.65,0,0,1,5.06-1.6,1.31,1.31,0,0,1,1.24.23c.41.37,0,.64-.23.95a14.11,14.11,0,0,1-7.3,5.56C155.45,214.93,154.85,215.07,154.65,215.13Z" />
    <path
            class="cls-1"
            d="M173.41,169.78a3.87,3.87,0,0,1-1.95-1.21,59,59,0,0,1-5.15-4.95c-.29-.32-.65-.62-.16-1a1,1,0,0,1,1.35,0,16.85,16.85,0,0,1,6,6.78C173.57,169.47,173.47,169.6,173.41,169.78Z" />
</svg>