<svg
        id="Layer_1"
        data-name="Layer 1"
        xmlns="http://www.w3.org/2000/svg"
        viewBox="0 0 500 500">
    <defs>
        <style>.cls-1{font-size:109.25px;font-family:FiraCode-Retina, Fira Code;letter-spacing:0.34em;}.cls-1,.cls-3,.cls-4{fill:#463f57;}.cls-2{fill:#219cd8;}.cls-3{font-size:54.93px;letter-spacing:0.3em;}.cls-3,.cls-4{font-family:FiraCode-SemiBold, Fira Code;font-weight:600;}.cls-4{font-size:54.93px;letter-spacing:0.3em;}</style>
    </defs>
    <title>S_original</title>
    <text
            class="cls-1"
            transform="translate(101.99 279.73) scale(0.77 1)">PARK</text>
    <path
            class="cls-2"
            d="M479.75,298.47a1.53,1.53,0,0,1-.85,1.5,2.41,2.41,0,0,1-2,0,1.76,1.76,0,0,1-.73-.46,53.62,53.62,0,0,1-6.69-8.12,5,5,0,0,1-.72-1.77,3.32,3.32,0,0,0-.74-1.86c-.12-.13-.18-.31,0-.45s.46,0,.66.1a19.9,19.9,0,0,1,5.41,4.32c1.79,2,3.51,4,5.26,6A1.36,1.36,0,0,1,479.75,298.47Z" />
    <path
            class="cls-2"
            d="M498.1,279.73c-1.45,0-3-.18-4.47-.36-4.37-.52-8.77-1-13.11-1.64a7.91,7.91,0,0,1-4.22-1.9c-.14-.13-.26-.25-.08-.42a.36.36,0,0,1,.53,0,2,2,0,0,0,1.51.22,24.35,24.35,0,0,1,6.16.23q6.13.67,12.17,1.69a3,3,0,0,1,2.35,1.19C499.25,279.29,499,279.66,498.1,279.73Z" />
    <path
            class="cls-2"
            d="M476.84,258.16l-.31,0c-.17,0-.33,0-.38-.15s.05-.29.24-.35c1.9-.61,3.34-1.8,5.12-2.58,3.31-1.46,6.66-2.85,10.09-4.12a2.81,2.81,0,0,1,2.15,0,.79.79,0,0,1-.06,1.54c-3.88,1.3-7.44,3.15-11.36,4.37A44.26,44.26,0,0,1,476.84,258.16Z" />
    <path
            class="cls-2"
            d="M482.41,263.81a2.67,2.67,0,0,1,1,0,.9.9,0,0,1,.74.76c0,.35-.27.54-.66.7-.78.34-1.52.71-2.27,1.07a9,9,0,0,1-2.3.73.63.63,0,0,1-.57-.1c-.18-.18,0-.3.11-.44A6.36,6.36,0,0,1,481.8,264,5.92,5.92,0,0,1,482.41,263.81Z" />
    <path
            class="cls-2"
            d="M473.89,284.46a1.9,1.9,0,0,1,.89.56,26.13,26.13,0,0,1,2.33,2.25c.14.15.3.29.08.48a.48.48,0,0,1-.62,0,7.85,7.85,0,0,1-2.74-3.1S473.86,284.55,473.89,284.46Z" />
    <text
            class="cls-3"
            transform="matrix(-1.76, -0.34, 0.19, -0.98, 482, 250.24)">{</text>
    <text
            class="cls-4"
            transform="matrix(1.76, 0.34, 0.19, -0.98, 406.27, 191.9)">{</text>
    <path
            class="cls-2"
            d="M20.25,181.33a1.55,1.55,0,0,1,.85-1.51,2.49,2.49,0,0,1,2,0,1.77,1.77,0,0,1,.73.47,52.65,52.65,0,0,1,6.69,8.12,4.94,4.94,0,0,1,.72,1.77,3.32,3.32,0,0,0,.74,1.86c.12.13.18.3,0,.44s-.46,0-.66-.09a20.29,20.29,0,0,1-5.42-4.32c-1.78-2-3.51-4-5.25-6A1.39,1.39,0,0,1,20.25,181.33Z" />
    <path
            class="cls-2"
            d="M1.9,200.06c1.45,0,3,.19,4.47.37,4.37.52,8.77,1,13.11,1.64A7.91,7.91,0,0,1,23.7,204c.14.13.26.24.08.42s-.38.11-.54,0a2.05,2.05,0,0,0-1.5-.23,24.82,24.82,0,0,1-6.16-.22q-6.13-.69-12.17-1.69a3,3,0,0,1-2.35-1.2C.75,200.5,1,200.13,1.9,200.06Z" />
    <path
            class="cls-2"
            d="M23.16,221.63l.31,0c.17,0,.33,0,.38.14s-.05.29-.24.36c-1.9.61-3.34,1.79-5.12,2.58-3.31,1.45-6.66,2.85-10.09,4.12a2.77,2.77,0,0,1-2.15,0,.79.79,0,0,1,.06-1.54c3.88-1.29,7.44-3.15,11.36-4.36A42.52,42.52,0,0,1,23.16,221.63Z" />
    <path
            class="cls-2"
            d="M17.59,216a2.64,2.64,0,0,1-1,0,.9.9,0,0,1-.74-.75c0-.35.27-.54.66-.71.77-.33,1.52-.7,2.27-1.06a9,9,0,0,1,2.3-.73.6.6,0,0,1,.57.1c.18.17,0,.29-.11.44a6.41,6.41,0,0,1-3.32,2.53C18,215.9,17.67,216,17.59,216Z" />
    <path
            class="cls-2"
            d="M26.11,195.33a1.81,1.81,0,0,1-.89-.55,27.71,27.71,0,0,1-2.33-2.26c-.14-.14-.3-.28-.08-.47a.46.46,0,0,1,.61,0,7.77,7.77,0,0,1,2.75,3.09S26.14,195.25,26.11,195.33Z" />
    <text
            class="cls-3"
            transform="matrix(1.76, 0.34, -0.19, 0.98, 18, 229.55)">{</text>
    <text
            class="cls-4"
            transform="matrix(-1.76, -0.34, -0.19, 0.98, 93.73, 287.9)">{</text>
</svg>