<svg id="Layer_1" data-name="Layer 1" xmlns="http://www.w3.org/2000/svg" viewBox="0 0 250 265.37"><defs><style>.cls-1{fill:#219cd8;}.cls-2{fill:#463f57;}</style></defs><title>SPARKS (Paths)</title><path class="cls-1" d="M208.33,261.58a3.43,3.43,0,0,1-1.83,3.33,5.17,5.17,0,0,1-4.32-.05,3.76,3.76,0,0,1-1.57-1c-5.27-5.73-10.52-11.46-14.43-17.92a11.57,11.57,0,0,1-1.56-3.9A7.53,7.53,0,0,0,183,237.9c-.27-.29-.39-.67,0-1,.6-.44,1,0,1.43.21a43.66,43.66,0,0,1,11.68,9.54c3.85,4.39,7.57,8.85,11.34,13.29A3,3,0,0,1,208.33,261.58Z"/><path class="cls-1" d="M247.92,220.24c-3.13-.07-6.39-.41-9.63-.81-9.44-1.15-18.92-2.17-28.29-3.61a16.86,16.86,0,0,1-9.1-4.2c-.31-.29-.56-.54-.18-.93s.82-.25,1.15,0a4.31,4.31,0,0,0,3.24.49c4.54-.64,8.92,0,13.3.51,8.82,1,17.58,2.26,26.27,3.73,2.13.36,4.13.87,5.06,2.63C250.4,219.27,249.81,220.08,247.92,220.24Z"/><path class="cls-1" d="M202.05,172.62l-.65.09c-.39,0-.71,0-.84-.32s.11-.65.53-.78c4.09-1.36,7.21-4,11-5.7,7.15-3.21,14.37-6.3,21.77-9.1a5.89,5.89,0,0,1,4.64,0,1.76,1.76,0,0,1-.13,3.4c-8.37,2.86-16,6.95-24.52,9.63A87.07,87.07,0,0,1,202.05,172.62Z"/><path class="cls-1" d="M214.08,185.09a5.49,5.49,0,0,1,2.19,0,1.92,1.92,0,0,1,1.59,1.66c.1.77-.57,1.19-1.42,1.56-1.66.73-3.28,1.55-4.89,2.35a19.23,19.23,0,0,1-5,1.62,1.28,1.28,0,0,1-1.22-.24c-.4-.37,0-.64.23-1a13.78,13.78,0,0,1,7.15-5.58A12.41,12.41,0,0,1,214.08,185.09Z"/><path class="cls-1" d="M195.69,230.68a3.94,3.94,0,0,1,1.92,1.22,60.8,60.8,0,0,1,5,5c.29.32.64.62.16,1a1,1,0,0,1-1.32,0,16.83,16.83,0,0,1-5.92-6.83C195.53,231,195.63,230.86,195.69,230.68Z"/><path class="cls-2" d="M97.37,226.27q11.43,2.28,17.61,1.55t6.33-5.58l.15-21.19a15.25,15.25,0,0,1,.25-3.11q1.4-7.33,9.53-9.6t22.38-.75q-14.28-4.25-20.75-9.25T127.79,166a18.11,18.11,0,0,1,1-3.23l7.62-19.7a3.33,3.33,0,0,0,.29-1q.79-4.14-4.71-7t-16.29-5l2.19-11.54q24.47,4.89,35.75,11.42T163,146.2a18.67,18.67,0,0,1-1,3.3l-7.23,18.76a14.33,14.33,0,0,0-.56,1.79q-1.06,5.61,6,9.55t22.61,7.05l-2.48,13.06q-15.5-3.09-23.49-2.16t-9,6.49a11.43,11.43,0,0,0-.13,1.87l-.18,20.18a20.64,20.64,0,0,1-.34,3.54q-1.85,9.7-14.69,11.38T95.18,237.8Z"/><path class="cls-2" d="M129,148.35Q104.54,143.51,93.24,137t-9.48-16.18a20.24,20.24,0,0,1,1-3.42l7.19-18.78a12.69,12.69,0,0,0,.56-1.79c.69-3.7-1.31-6.86-6-9.48s-12.24-5-22.57-7L66.35,67.3Q82,70.39,89.89,69.43t9-6.58A15.64,15.64,0,0,0,99,61l.14-20.18a18.21,18.21,0,0,1,.31-3.42Q101.3,27.67,114.15,26t37.32,3.11L149.3,40.6Q138.5,38.46,132.37,39c-4.1.35-6.4,1.91-6.93,4.67a3.72,3.72,0,0,0-.07,1l-.11,21.19a19.25,19.25,0,0,1-.3,3.36q-1.39,7.4-9.22,9.54t-22.62.63q13.75,4.05,20.48,9.27t5.34,12.55a14.48,14.48,0,0,1-.9,3l-7.59,19.71q-1.64,4.56,3.84,7.6t16.9,5.31Z"/><path class="cls-1" d="M41.67,3.79A3.42,3.42,0,0,1,43.5.46a5.21,5.21,0,0,1,4.32,0,3.88,3.88,0,0,1,1.57,1C54.66,7.25,59.91,13,63.82,19.45a11.57,11.57,0,0,1,1.56,3.9A7.47,7.47,0,0,0,67,27.46c.27.29.39.68,0,1-.6.44-1,0-1.43-.2A43.66,43.66,0,0,1,53.82,18.7C50,14.31,46.25,9.84,42.48,5.41A3,3,0,0,1,41.67,3.79Z"/><path class="cls-1" d="M2.08,45.13c3.13.07,6.39.41,9.63.81,9.44,1.15,18.92,2.17,28.29,3.61a16.86,16.86,0,0,1,9.1,4.2c.31.28.56.54.18.93s-.82.25-1.15,0a4.31,4.31,0,0,0-3.24-.48c-4.54.64-8.92,0-13.3-.51C22.77,52.7,14,51.44,5.32,50c-2.13-.36-4.13-.87-5.06-2.63C-.4,46.1.19,45.28,2.08,45.13Z"/><path class="cls-1" d="M48,92.74l.65-.08c.39,0,.71,0,.84.32s-.11.64-.53.78c-4.09,1.36-7.21,4-11,5.69-7.15,3.22-14.37,6.31-21.77,9.11a5.89,5.89,0,0,1-4.64,0,1.75,1.75,0,0,1,.13-3.39c8.37-2.86,16.05-7,24.52-9.64A90.16,90.16,0,0,1,48,92.74Z"/><path class="cls-1" d="M35.92,80.28a5.49,5.49,0,0,1-2.19,0,1.92,1.92,0,0,1-1.59-1.66c-.1-.78.57-1.19,1.42-1.56,1.66-.73,3.28-1.55,4.89-2.36a19.6,19.6,0,0,1,5-1.61,1.3,1.3,0,0,1,1.22.23c.4.38,0,.65-.23,1a13.8,13.8,0,0,1-7.15,5.59A12.41,12.41,0,0,1,35.92,80.28Z"/><path class="cls-1" d="M54.31,34.69a3.94,3.94,0,0,1-1.92-1.22,60.8,60.8,0,0,1-5-5c-.29-.32-.64-.63-.16-1a1,1,0,0,1,1.32,0,16.81,16.81,0,0,1,5.92,6.82C54.47,34.37,54.37,34.51,54.31,34.69Z"/></svg>