<svg id="Layer_1" data-name="Layer 1" xmlns="http://www.w3.org/2000/svg" viewBox="0 0 500 125"><defs><style>.cls-1{fill:#463f57;}.cls-2{fill:#219cd8;}</style></defs><title>SPARKS (Paths)</title><path class="cls-1" d="M143.91,68.28q-6.22,6.3-17,6.3h-7.48V103.8h-8.65v-80h15.87q11.21,0,17.36,6.19t6.15,18.61Q150.12,62,143.91,68.28Zm-6.52-31.83q-3.62-3.8-10-3.8h-8V65.52h7.91q6.53,0,10.11-3.83t3.58-13Q141,40.25,137.39,36.45Z"/><path class="cls-1" d="M223.73,103.8l-4.52-19.92H196.52L192,103.8h-8.65l19.3-80h10.86l19.35,80ZM207.91,33.05l-9.39,41.59h18.69Z"/><path class="cls-1" d="M305.73,60.7a20.32,20.32,0,0,1-10.3,7.84l17.43,35.26H302.64L286.86,70.05h-7.43V103.8h-8.65v-80h16q11.31,0,17.11,5.72t5.8,17Q309.64,55.07,305.73,60.7Zm-8.41-24.8q-3.17-3.32-9.85-3.31h-8V61.28h8.13q6.39,0,9.65-3.51t3.26-11.3Q300.47,39.21,297.32,35.9Z"/><path class="cls-1" d="M360.21,23.76v80H351.6v-80Zm23.69,80L360.64,61.05l22.43-37.29h9.7L370.42,60.3l24,43.5Z"/><path class="cls-2" d="M480.61,123.22a1.59,1.59,0,0,1-.85,1.56,2.39,2.39,0,0,1-2,0,1.83,1.83,0,0,1-.73-.48,54.49,54.49,0,0,1-6.71-8.42,5.53,5.53,0,0,1-.73-1.83,3.53,3.53,0,0,0-.74-1.93c-.12-.14-.18-.32,0-.46s.47,0,.67.1a20.11,20.11,0,0,1,5.43,4.48c1.79,2.06,3.52,4.16,5.28,6.24A1.43,1.43,0,0,1,480.61,123.22Z"/><path class="cls-2" d="M499,103.8a43.68,43.68,0,0,1-4.48-.38c-4.39-.54-8.8-1-13.16-1.7a7.77,7.77,0,0,1-4.23-2c-.15-.13-.26-.25-.09-.44s.38-.11.54,0a2,2,0,0,0,1.51.23,24.05,24.05,0,0,1,6.18.23c4.11.47,8.18,1.07,12.22,1.76a3,3,0,0,1,2.36,1.23C500.19,103.35,499.91,103.73,499,103.8Z"/><path class="cls-2" d="M477.69,81.44l-.3,0c-.18,0-.33,0-.39-.15s.05-.3.24-.36c1.91-.64,3.36-1.87,5.14-2.68,3.33-1.51,6.69-3,10.13-4.27a2.71,2.71,0,0,1,2.16,0,.83.83,0,0,1-.06,1.6c-3.9,1.34-7.47,3.26-11.41,4.52A42,42,0,0,1,477.69,81.44Z"/><path class="cls-2" d="M483.29,87.29a2.45,2.45,0,0,1,1,0,.91.91,0,0,1,.74.77c0,.37-.27.56-.66.74-.78.34-1.53.73-2.28,1.1a8.7,8.7,0,0,1-2.31.76.58.58,0,0,1-.56-.11c-.19-.17,0-.3.1-.45a6.46,6.46,0,0,1,3.33-2.62A5,5,0,0,1,483.29,87.29Z"/><path class="cls-2" d="M474.73,108.71a1.73,1.73,0,0,1,.89.57,26,26,0,0,1,2.35,2.34c.14.15.3.29.07.49a.45.45,0,0,1-.61,0,7.94,7.94,0,0,1-2.75-3.21S474.71,108.79,474.73,108.71Z"/><path class="cls-1" d="M429,106.69a27.61,27.61,0,0,0,8.19.73c1.92-.22,2.9-1.1,2.95-2.62l.07-10a7,7,0,0,1,.12-1.46,5.6,5.6,0,0,1,4.43-4.51q3.78-1.06,10.41-.36-6.64-2-9.65-4.34a5.64,5.64,0,0,1-2.37-5.81,9.1,9.1,0,0,1,.44-1.52l3.55-9.26a1.52,1.52,0,0,0,.14-.44q.36-2-2.19-3.29a29.85,29.85,0,0,0-7.59-2.34l1-5.42q11.38,2.3,16.64,5.36t4.39,7.63a9,9,0,0,1-.45,1.54l-3.36,8.82a7.18,7.18,0,0,0-.26.84c-.33,1.75.59,3.25,2.77,4.48s5.68,2.34,10.52,3.31l-1.16,6.14q-7.2-1.45-10.92-1c-2.48.3-3.89,1.31-4.21,3a4.72,4.72,0,0,0-.06.88l-.09,9.48a9.57,9.57,0,0,1-.15,1.66q-.87,4.56-6.84,5.35T428,112.11Z"/><path class="cls-1" d="M443.76,70q-11.38-2.27-16.65-5.32t-4.41-7.6a9.49,9.49,0,0,1,.46-1.6l3.34-8.82a4.83,4.83,0,0,0,.26-.84c.33-1.74-.61-3.23-2.8-4.46S418.26,39,413.46,38l1.14-6.13q7.26,1.44,10.95,1c2.47-.3,3.86-1.33,4.19-3.09a6.15,6.15,0,0,0,.06-.88l.07-9.47a8.46,8.46,0,0,1,.14-1.61q.86-4.56,6.83-5.37t17.36,1.46l-1,5.42a29.88,29.88,0,0,0-7.88-.76c-1.9.17-3,.9-3.21,2.2a1.68,1.68,0,0,0,0,.47l-.05,10a9.47,9.47,0,0,1-.14,1.58,5.44,5.44,0,0,1-4.29,4.48q-3.65,1-10.53.3a29.09,29.09,0,0,1,9.53,4.35,5.79,5.79,0,0,1,2.49,5.9,7,7,0,0,1-.42,1.4l-3.53,9.26c-.51,1.43.09,2.62,1.78,3.57a28.34,28.34,0,0,0,7.87,2.49Z"/><path class="cls-2" d="M19.39,1.78A1.59,1.59,0,0,1,20.24.22a2.39,2.39,0,0,1,2,0A1.83,1.83,0,0,1,23,.72a54.49,54.49,0,0,1,6.71,8.42A5.53,5.53,0,0,1,30.42,11a3.53,3.53,0,0,0,.74,1.93c.12.14.18.32,0,.46s-.47,0-.67-.1A20.11,20.11,0,0,1,25,8.78c-1.79-2.06-3.52-4.16-5.28-6.24A1.43,1.43,0,0,1,19.39,1.78Z"/><path class="cls-2" d="M1,21.2a43.68,43.68,0,0,1,4.48.38c4.39.54,8.8,1,13.16,1.7a7.77,7.77,0,0,1,4.23,2c.15.13.26.25.09.44s-.38.11-.54,0a2,2,0,0,0-1.51-.23,24.05,24.05,0,0,1-6.18-.23c-4.11-.47-8.18-1.07-12.22-1.76A3,3,0,0,1,.12,22.24C-.19,21.65.09,21.27,1,21.2Z"/><path class="cls-2" d="M22.31,43.56l.3,0c.18,0,.33,0,.39.15s-.05.3-.24.36c-1.91.64-3.36,1.87-5.14,2.68-3.33,1.51-6.69,3-10.13,4.27a2.71,2.71,0,0,1-2.16,0,.83.83,0,0,1,.06-1.6c3.9-1.34,7.47-3.26,11.41-4.52A42,42,0,0,1,22.31,43.56Z"/><path class="cls-2" d="M16.71,37.71a2.45,2.45,0,0,1-1,0,.91.91,0,0,1-.74-.77c0-.37.27-.56.66-.74.78-.34,1.53-.73,2.28-1.1a8.7,8.7,0,0,1,2.31-.76.58.58,0,0,1,.56.11c.19.17,0,.3-.1.45a6.46,6.46,0,0,1-3.33,2.62A5,5,0,0,1,16.71,37.71Z"/><path class="cls-2" d="M25.27,16.29a1.73,1.73,0,0,1-.89-.57A26,26,0,0,1,22,13.38c-.14-.15-.3-.29-.07-.49a.45.45,0,0,1,.61,0,7.94,7.94,0,0,1,2.75,3.21S25.29,16.21,25.27,16.29Z"/><path class="cls-1" d="M70.94,18.41a28.35,28.35,0,0,0-8.2-.73c-1.91.23-2.89,1.11-2.94,2.62l-.07,10a7.08,7.08,0,0,1-.12,1.46,5.61,5.61,0,0,1-4.43,4.51q-3.8,1.07-10.41.35,6.65,2,9.65,4.35a5.64,5.64,0,0,1,2.37,5.81,8.31,8.31,0,0,1-.45,1.52L52.8,57.51a1.71,1.71,0,0,0-.14.45q-.36,1.95,2.19,3.29a29.89,29.89,0,0,0,7.58,2.34l-1,5.42Q50,66.72,44.78,63.65T40.39,56a8.91,8.91,0,0,1,.44-1.54l3.37-8.82a7.83,7.83,0,0,0,.26-.84q.49-2.64-2.77-4.48T31.17,37l1.16-6.13q7.2,1.45,10.92,1t4.21-3a4.65,4.65,0,0,0,.06-.88l.09-9.47a9.57,9.57,0,0,1,.15-1.66c.58-3,2.85-4.83,6.84-5.35S64.37,11.47,72,13Z"/><path class="cls-1" d="M56.3,55Q67.69,57.28,73,60.32t4.41,7.61a9.77,9.77,0,0,1-.46,1.6l-3.34,8.82a6.29,6.29,0,0,0-.27.84q-.48,2.61,2.81,4.46t10.5,3.28l-1.15,6.14q-7.24-1.45-11-1c-2.46.3-3.86,1.33-4.18,3.09a6.42,6.42,0,0,0-.06.88l-.07,9.48a9.25,9.25,0,0,1-.14,1.6q-.85,4.57-6.83,5.38T45.85,111l1-5.42a29.4,29.4,0,0,0,7.88.75c1.91-.16,3-.89,3.22-2.19a1.68,1.68,0,0,0,0-.47l0-10a8.6,8.6,0,0,1,.14-1.58,5.47,5.47,0,0,1,4.29-4.48q3.65-1,10.52-.29Q66.61,85.49,63.48,83A5.76,5.76,0,0,1,61,77.15a7.12,7.12,0,0,1,.42-1.41l3.53-9.25c.5-1.43-.09-2.62-1.79-3.57a27.76,27.76,0,0,0-7.86-2.5Z"/></svg>